<svg width="90" height="30" viewBox="0 0 90 30" fill="none" xmlns="http://www.w3.org/2000/svg">
<g clip-path="url(#clip0_103_378)">
<path d="M12.7135 29.8742C7.16393 29.0302 2.53968 25.1197 0.75596 19.7627C0.212363 18.13 -0.0021665 16.7685 1.64778e-05 14.9647C0.00547623 10.4677 1.94649 6.34845 5.4369 3.42656C7.19345 1.95615 9.66223 0.770263 11.9094 0.317528C12.6888 0.160491 14.0201 0.0020445 14.5601 0.0020445H14.8584V11.2194L14.3413 11.2691C12.975 11.4002 11.7929 11.7599 10.7605 12.3588C8.57236 13.6283 7.09017 15.7124 6.62525 18.1732C6.47654 18.9604 6.47654 20.5011 6.62525 21.2883C7.55319 26.2006 12.4394 29.2365 17.2294 27.8762C18.1753 27.6076 19.4554 26.9471 20.2094 26.3383C21.6228 25.1971 22.1975 24.0281 22.1154 22.4613C22.0684 21.5642 21.8456 20.9127 21.3448 20.2079C20.5534 19.0941 19.2979 18.4604 17.887 18.4624C16.9184 18.4639 16.0658 18.7553 15.2898 19.3503L14.935 19.6223V15.0771H25.8115V25.285L25.1412 25.9336C22.9412 28.0627 20.0978 29.4373 16.9648 29.8862C15.9824 30.027 13.6791 30.0199 12.7137 29.8731L12.7135 29.8742ZM27.8031 24.7311V19.4623H90.0008V30.0002H27.8031V24.7311ZM86.3012 27.9457C87.0718 27.5537 87.309 25.8522 86.7613 24.6452C86.7073 24.5262 86.4976 24.3602 86.2301 24.2245C85.8585 24.0362 85.696 24.0004 85.2113 24.0004H84.6347V21.3795L83.2177 21.4237L83.1977 24.7478L83.1777 28.0718L84.0019 28.1013C85.3588 28.1499 85.9827 28.1077 86.3012 27.9457L86.3012 27.9457ZM84.6347 26.0772V25.308H85.4006V26.8464H84.6347V26.0772ZM32.3965 26.6925V25.308H33.0859V28.0826L34.5795 28.0386V21.4235H33.1242L33.1032 22.7119L33.0822 24.0002H32.3965V21.3851H30.7114V28.0769H32.3965L32.3965 26.6925ZM46.9495 27.4617V26.8463H45.5708V25.308H46.7198V24.0004H45.5708V22.6927H46.7198V21.3851H43.8857V28.0769H46.9495V27.4617ZM59.7412 27.7693V27.4617H60.2445C60.6747 27.4617 60.7941 27.4294 61.0678 27.2391C61.8128 26.7212 61.8856 26.501 61.8836 24.7696C61.8815 22.9475 61.856 22.8673 61.0905 22.2805C60.7579 22.0256 60.6811 22.0006 60.2332 22.0006H59.7412V21.3852H58.0561V22.0006H57.5841C57.1909 22.0006 57.0526 22.0389 56.7563 22.2298C56.5606 22.3559 56.3277 22.5376 56.2387 22.6336C55.9742 22.9191 55.8348 23.6427 55.8348 24.7311C55.8348 25.8238 55.9737 26.5399 56.2431 26.8375C56.3345 26.9384 56.5437 27.1202 56.708 27.2413C56.9681 27.4332 57.0746 27.4617 57.5314 27.4617H58.0561V28.077H59.7412L59.7412 27.7693ZM57.6923 26.1371C57.5231 26.0552 57.5199 26.0285 57.5199 24.6809V23.3082H58.0561V24.7696C58.0561 26.3202 58.0577 26.3141 57.6923 26.1371ZM59.7412 24.7696V23.3082H60.2774V26.0525L60.0823 26.1418C59.975 26.1909 59.8544 26.231 59.8142 26.231C59.7705 26.231 59.7412 25.6445 59.7412 24.7696V24.7696ZM73.2987 25.3849V22.6928H74.2944V21.3824L70.6561 21.4237L70.6339 22.0582L70.6116 22.6928H71.6136V28.077H73.2987L73.2987 25.3849ZM27.8008 7.5017V0.00228041H33.4689V1.84829H30.7114V15.0011H27.8008V7.5017ZM33.6219 14.8292C33.6219 14.6224 35.0622 0.609158 35.1201 0.25207L35.1607 0.00209027H37.4934C39.7708 0.00209027 39.8261 0.00572009 39.8261 0.155091C39.8261 0.32624 41.2519 14.1605 41.3225 14.674L41.3674 15.0009H38.4752L38.3804 13.5202C38.3283 12.7058 38.2654 11.8059 38.2406 11.5203L38.1956 11.0011H37.4803C36.6304 11.0011 36.7275 10.812 36.6117 12.6933C36.5662 13.4336 36.5084 14.2557 36.4835 14.5201L36.438 15.0008H35.0299C33.6237 15.0008 33.6219 15.0006 33.6219 14.829L33.6219 14.8292ZM38.0632 9.05927C38.0625 8.87948 37.9595 7.26132 37.8342 5.46342C37.7089 3.66546 37.606 2.11654 37.6056 2.02136C37.6044 1.74812 37.3878 1.81142 37.3425 2.09827C37.3207 2.23576 37.2153 3.69813 37.1082 5.348C37.0011 6.99787 36.8923 8.5814 36.8663 8.86696L36.8191 9.38615H38.0644L38.0632 9.05925L38.0632 9.05927ZM44.0561 14.8881C43.5675 14.7348 43.2338 14.4388 42.9918 13.9441L42.7752 13.5012L42.725 9.7707H45.6476V12.8362L45.8494 12.9956C45.9604 13.0833 46.0936 13.1551 46.1454 13.1551C46.1973 13.1551 46.3305 13.0833 46.4415 12.9956L46.6433 12.8362V10.8085C46.6433 9.69328 46.6104 8.69384 46.5701 8.58752C46.4295 8.21605 46.1584 8.11949 45.1723 8.08966L44.2689 8.06233V6.46328H45.1535C46.1662 6.46328 46.4252 6.37651 46.5585 5.99264C46.6114 5.84026 46.6434 5.06103 46.6434 3.92545C46.6434 2.2574 46.6315 2.09202 46.5033 1.97554C46.2979 1.78888 45.9115 1.81178 45.7669 2.01919C45.6705 2.15742 45.6476 2.43712 45.6476 3.4806V4.77108H42.7238L42.7496 3.13661C42.7751 1.51639 42.7772 1.49821 42.9953 1.05217C43.1586 0.718107 43.3042 0.545647 43.5604 0.382477C44.1043 0.0361303 44.5045 -0.0153183 46.4136 0.0157235C48.0468 0.0422824 48.1565 0.053383 48.5094 0.227786C48.9558 0.448413 49.2792 0.868294 49.4575 1.45873C49.5632 1.80884 49.5872 2.22944 49.5895 3.77114C49.5922 5.52872 49.5815 5.67894 49.4313 6.00176C49.1314 6.64608 48.6623 6.98615 47.9752 7.05733C47.6992 7.08594 47.5625 7.13474 47.5625 7.20471C47.5625 7.27191 47.6535 7.30933 47.8167 7.30933C48.5437 7.30933 49.1785 7.71376 49.4466 8.34771C49.6143 8.74417 49.6871 11.3938 49.5664 12.709C49.4422 14.0633 49.0925 14.6239 48.2049 14.8922C47.7127 15.0409 44.5336 15.0377 44.0561 14.888L44.0561 14.8881ZM51.6218 7.5017V0.00228041H58.5154V15.0011H55.6048V1.84829H54.5324V15.0011H51.6218L51.6218 7.5017ZM60.5071 7.5017V0.00228041H63.0609C65.7826 0.00228041 66.0676 0.0337428 66.5876 0.391536C66.9244 0.623274 67.153 0.996394 67.2919 1.54091C67.3892 1.9223 67.4048 2.52552 67.3855 5.17305C67.3628 8.29858 67.3597 8.35379 67.1864 8.73147C66.9548 9.23599 66.7539 9.44524 66.2901 9.66486C65.9386 9.83131 65.8079 9.84628 64.7007 9.84697L63.4943 9.84772V15.0012H60.5071L60.5071 7.5017ZM64.2369 8.12375L64.4518 7.93819L64.4722 5.14321C64.4918 2.46269 64.4864 2.33802 64.3393 2.09827C64.2029 1.87589 64.1478 1.84829 63.8402 1.84829H63.4944V8.30933H63.7582C63.9266 8.30933 64.0997 8.24222 64.2369 8.12377V8.12375ZM70.7882 14.8882C70.2996 14.735 69.9659 14.439 69.7239 13.9443L69.5073 13.5014L69.4858 7.73691C69.4712 3.81939 69.4909 1.8441 69.5472 1.57181C69.673 0.963206 70.0098 0.51105 70.5274 0.255781L70.9626 0.0411345H72.8775C74.3473 0.0411345 74.8547 0.0663373 75.0605 0.149577C75.8387 0.46434 76.1791 1.02562 76.29 2.17655C76.3813 3.12431 76.3782 11.916 76.2862 12.8655C76.1708 14.0563 75.7846 14.6366 74.9369 14.8927C74.4447 15.0415 71.2655 15.0383 70.7881 14.8886L70.7882 14.8882ZM73.1736 12.9958L73.3754 12.8364V7.4831C73.3754 1.53202 73.4038 1.84844 72.87 1.84844C72.3582 1.84844 72.3796 1.60014 72.3796 7.51339V12.8364L72.5815 12.9958C72.6925 13.0835 72.8257 13.1552 72.8775 13.1552C72.9294 13.1552 73.0626 13.0835 73.1736 12.9958ZM78.3541 7.50182V0.0023966H80.2609C81.717 0.0023966 82.1756 0.0251179 82.2017 0.0985442C82.2205 0.151424 82.6631 2.52241 83.1854 5.36735C83.7076 8.21234 84.1527 10.54 84.1744 10.54C84.1961 10.54 84.6461 8.17773 85.1743 5.29045L86.1347 0.0408563L89.9967 -0.000244141V15.0015H87.0873L87.0675 10.2967C87.0543 7.14105 87.0217 5.58319 86.9685 5.56542C86.9198 5.54911 86.6011 7.30771 86.1404 10.1356C85.7285 12.6637 85.3738 14.7937 85.3522 14.8689C85.3163 14.9932 85.2085 15.0035 84.1511 14.9842L82.9895 14.963L82.2243 10.2518C81.68 6.9004 81.4311 5.54064 81.362 5.54064C81.2845 5.54064 81.2648 6.5004 81.2648 10.271V15.0015H78.3542L78.3541 7.50182Z" fill="#007AC6"/>
</g>
<defs>
<clipPath id="clip0_103_378">
<rect width="90" height="30" fill="white"/>
</clipPath>
</defs>
</svg>
