<svg width="106" height="20" viewBox="0 0 106 20" fill="none" xmlns="http://www.w3.org/2000/svg">
<g clip-path="url(#clip0_103_391)">
<path d="M19.9883 8.66294C19.9883 8.66294 20.484 3.01965 20.5344 2.46713C20.5491 2.14589 20.4992 1.82498 20.3878 1.52351C20.2763 1.22204 20.1055 0.94619 19.8856 0.712402C19.6657 0.478613 19.4011 0.291671 19.1077 0.162717C18.8143 0.0337627 18.4981 -0.0345633 18.1778 -0.0381884H3.99187C3.33786 -0.0837015 2.69229 0.131031 2.1947 0.55959C1.69712 0.988148 1.3875 1.5961 1.33279 2.25202C1.26978 2.9142 0.0935638 16.5585 0.0221509 17.343C-0.0197547 17.6771 0.00883146 18.0163 0.106052 18.3385C0.203272 18.6608 0.366951 18.9589 0.586447 19.2135C0.805942 19.4681 1.07634 19.6735 1.38007 19.8163C1.6838 19.959 2.01405 20.0361 2.34937 20.0423H16.4513C18.3248 20.0423 19.0516 19.0469 19.2112 17.5117C19.3078 16.5922 19.7699 11.0375 19.7699 11.0375H11.2424L10.8769 15.3311H8.71772L9.64609 4.67299H11.8053L11.4608 8.66294H19.9883Z" fill="#008C95"/>
<path d="M33.1452 1.67841C32.8428 2.55569 30.3601 10.3542 30.3601 10.3542L31.4649 -0.0466309H22.9416L21.1562 20.0423H27.5792C29.1923 20.0423 29.7426 19.1228 30.0114 18.3847C30.3349 17.5075 32.6999 10.9447 32.6999 10.9447L31.8304 20.0423H40.3579L42.1138 -0.0381953H35.422C34.9076 -0.0419446 34.4063 0.123992 33.9949 0.434117C33.5836 0.744242 33.2851 1.1814 33.1452 1.67841Z" fill="#008C95"/>
<path d="M76.3375 -0.0380859L75.5393 9.11855H73.3759L74.1741 -0.0380859H65.6507C65.6507 -0.0380859 64.8316 9.66263 64.7434 10.5947C64.6426 11.7124 65.2727 13.2941 67.1588 13.2941H75.1781L75.0016 15.3312H64.3317L63.9116 20.0424H80.8785C82.0295 20.0424 83.1385 19.2874 83.2897 17.6763C83.3863 16.6429 84.8524 -0.0380859 84.8524 -0.0380859H76.3375Z" fill="#008C95"/>
<path d="M98.5846 -0.0339355H87.0073L85.2598 20.0423H93.7831L94.325 13.8297H102.609C104.075 13.8297 105.045 13.0789 105.205 11.3581C105.264 10.6875 105.94 3.07873 105.982 2.40811C106.087 0.923483 104.911 -0.0339355 103.462 -0.0339355H98.5846ZM94.6905 9.66678L95.1105 4.68568H97.2487L96.8287 9.66678H94.6905Z" fill="#008C95"/>
<path d="M52.225 6.70602L52.4057 4.67309H63.084L63.5041 -0.0380859H44.2856L42.5381 20.0382H59.5512C60.6349 20.0382 61.807 19.3971 61.9582 17.7184C62.0716 16.4531 62.5967 10.4893 62.6933 9.40535C62.8193 7.95868 61.9036 6.70602 60.1099 6.70602H52.225ZM53.6029 15.8627H51.4269L51.847 10.8858H54.0188L53.6029 15.8627Z" fill="#008C95"/>
</g>
<defs>
<clipPath id="clip0_103_391">
<rect width="106" height="20" fill="white"/>
</clipPath>
</defs>
</svg>
