<svg width="114" height="60" viewBox="0 0 114 60" fill="none" xmlns="http://www.w3.org/2000/svg">
<path d="M45.104 28.8645H56.2276V21.1003H45.104V28.8645Z" fill="#294189"/>
<path d="M45.104 12.875H56.2276V5.11084H45.104V12.875Z" fill="#294189"/>
<path d="M57.7329 12.875H68.8566V5.11084H57.7329V12.875Z" fill="#294189"/>
<path d="M57.7329 28.8645H68.8566V21.1003H57.7329V28.8645Z" fill="#294189"/>
<path d="M71.575 20.469C70.5713 22.3983 68.355 22.5593 65.7789 22.5593L43.4564 22.5626C42.0262 22.5626 40.2782 22.5786 38.7979 23.2141C38.94 22.8452 39.0989 22.4243 39.2662 21.9707H39.2746C40.2531 20.0473 42.3608 19.8947 45.012 19.8947L67.3346 19.888C68.7062 19.888 70.5044 19.8871 72.035 19.218C71.8175 19.8251 71.5917 20.4145 71.575 20.469Z" fill="#5BB6D7"/>
<path d="M73.1472 16.2364C72.1519 18.1657 69.9355 18.3292 67.3512 18.3292L45.0286 18.3351C43.6068 18.3351 41.8588 18.3443 40.3784 18.9841C40.5206 18.6109 40.6795 18.1959 40.8468 17.7381V17.7398C41.8337 15.8164 43.9413 15.6629 46.5926 15.6629L68.9152 15.6587C70.2868 15.6587 72.085 15.6529 73.6155 14.9846C73.3897 15.5933 73.1722 16.1861 73.1472 16.2364Z" fill="#5BB6D7"/>
<path d="M74.7277 12.0037C73.7241 13.9355 71.5161 14.0965 68.9317 14.0965L46.6092 14.1007C45.1874 14.1007 43.4393 14.1141 41.959 14.7539C42.1012 14.3833 42.2517 13.9632 42.4274 13.5088V13.5104C43.4143 11.5845 45.5135 11.4344 48.1648 11.4344L70.4957 11.4252C71.859 11.4252 73.6655 11.4227 75.1961 10.7561C74.9619 11.3648 74.7528 11.9509 74.7277 12.0037Z" fill="#5BB6D7"/>
<path d="M13.7301 41.2292H18.8587V54.6589H13.7301V49.7077H10.306V54.6589H5.18164V41.2292H10.306V45.8718H13.7301V41.2292Z" fill="#294189"/>
<path d="M27.6572 44.2232C29.5976 44.2232 29.723 46.5424 29.723 47.9451C29.723 49.3454 29.5976 51.6645 27.6572 51.6645C25.7252 51.6645 25.5914 49.3454 25.5914 47.9451C25.5914 46.5424 25.7252 44.2232 27.6572 44.2232ZM27.6572 41.0027C22.9318 41.0027 20.2002 43.6656 20.2002 47.9451C20.2002 52.2221 22.9318 54.8893 27.6572 54.8893C32.3827 54.8893 35.1259 52.2221 35.1259 47.9451C35.1259 43.6656 32.3827 41.0027 27.6572 41.0027Z" fill="#294189"/>
<path d="M41.3236 43.9542H42.6451C44.0585 43.9542 44.4684 44.6829 44.4684 45.2388C44.4684 45.627 44.2844 46.5426 42.528 46.5426H41.3236V43.9542ZM36.4644 41.2292V54.6589H44.2425C45.9487 54.6589 49.7793 54.4652 49.7793 51.0711C49.7793 48.9598 48.0898 48.077 46.7516 47.8891V47.807C48.4244 47.5001 49.4698 46.2541 49.4698 44.7206C49.4698 43.4738 48.7087 41.2292 44.5185 41.2292H36.4644ZM41.3236 49.1913H42.5113C42.9545 49.1913 44.5353 49.1913 44.5353 50.5496C44.5353 51.0359 44.2676 51.9339 42.62 51.9339H41.3236V49.1913Z" fill="#294189"/>
<path d="M58.2516 44.4154L59.6483 48.6152H56.7963L58.1763 44.4154H58.2516ZM54.8643 41.2292L50.1807 54.6589H55.3076L56.2025 51.7595H60.2254L61.1454 54.6589H66.5399L61.7727 41.2292H54.8643Z" fill="#294189"/>
<path d="M78.9931 41.2292V45.2052H74.4767V54.6589H69.3498V45.2052H64.8418V41.2292H78.9931Z" fill="#294189"/>
<path d="M87.332 46.4856C87.1062 45.7939 86.4204 44.3568 83.836 44.3568C83.376 44.3568 82.1131 44.4347 80.8335 44.9705V41.4213L81.1179 41.3626C82.707 41.039 83.7775 41.0029 84.5386 41.0029C91.355 41.0029 92.6764 45.3185 92.6764 47.9454C92.6764 51.3009 90.4099 54.8895 84.6808 54.8895C83.2589 54.8895 81.8873 54.6162 80.8335 54.3504V50.7844C82.4142 51.3973 83.719 51.3973 83.9531 51.3973C86.6797 51.3973 87.24 49.5779 87.332 49.2299H82.707V46.4856H87.332Z" fill="#294189"/>
<path d="M99.3335 46.5048H99.4087L102.562 41.2292H108.4L103.883 47.5236L108.818 54.6589H102.696L99.4087 48.9598H99.3335V54.6589H94.2065V41.2292H99.3335V46.5048Z" fill="#294189"/>
</svg>
