<svg width="120" height="38" viewBox="0 0 120 38" fill="none" xmlns="http://www.w3.org/2000/svg">
<g clip-path="url(#clip0_103_419)">
<path fill-rule="evenodd" clip-rule="evenodd" d="M114.435 0.0368023L114.078 0.0913454L114.395 0.333677C114.811 0.652009 114.886 0.747337 115.12 1.26222C115.598 2.31213 115.689 4.74291 115.325 6.72497C115.13 7.78463 114.693 9.43853 114.395 10.2424C114.278 10.5554 114.202 10.8605 114.224 10.9203C114.283 11.0761 115.993 11.9002 116.562 12.0471C117.254 12.2255 117.782 12.2042 118.258 11.9784L118.661 11.7873L118.919 10.976C120.222 6.87836 120.406 2.63915 119.348 1.07779C119.084 0.687716 118.475 0.319918 117.817 0.153423C117.327 0.0294313 115.007 -0.0505813 114.435 0.0368023ZM112.657 0.27463C112.288 0.331057 110.773 0.70606 110.038 0.922759C107.683 1.61683 105.184 2.92325 104.059 4.04761C103.015 5.09162 102.955 6.1444 103.837 7.93368C104.203 8.67804 104.934 9.88437 105.105 10.0265C105.178 10.0878 105.206 10.0188 105.219 9.7472C105.252 9.00325 105.764 8.26094 106.754 7.52092C108.474 6.23449 111.197 5.17458 114.047 4.68148L114.349 4.62915V3.90658C114.349 2.92382 114.156 1.86162 113.873 1.29449C113.54 0.626785 113.048 0.214682 112.657 0.27463ZM107.975 8.14825C106.589 9.07925 105.973 9.87733 105.97 10.7468C105.968 11.1593 105.978 11.1763 106.664 11.9343C109.482 15.0488 112.952 17.2662 114.695 17.0666C114.885 17.0448 115.184 16.9588 115.36 16.8754C115.778 16.6769 116.566 15.8696 116.994 15.2013C117.357 14.6352 118.252 12.9082 118.183 12.9082C118.161 12.9082 117.987 12.991 117.797 13.0924C116.383 13.8476 113.184 12.1798 110.356 9.2129C109.91 8.74544 109.407 8.18788 109.238 7.97389C109.069 7.75989 108.904 7.58488 108.872 7.58488C108.84 7.58488 108.436 7.83835 107.975 8.14825ZM7.72743 15.3799C4.64918 15.5846 2.11813 17.2994 0.840847 20.0453C0.196684 21.4302 -0.0701524 22.8689 0.0155964 24.495C0.0929638 25.9621 0.378175 27.1394 0.924743 28.2477C2.03972 30.509 3.92982 31.8913 6.43797 32.28C7.87604 32.5027 9.50237 32.3772 10.7676 31.9456C11.2847 31.7692 12.4608 31.2055 12.8691 30.9383C12.9507 30.8849 12.8722 30.5933 12.5153 29.6238C12.2386 28.8723 12.0212 28.3938 11.9672 28.418C11.9181 28.44 11.5844 28.5894 11.2257 28.75C9.76614 29.4033 8.19639 29.5797 7.0769 29.2161C5.58645 28.7322 4.49903 27.4365 4.00944 25.5612C3.76517 24.6255 3.76533 22.81 4.00985 21.8758C4.50153 19.997 5.59322 18.8051 7.24388 18.3449C7.61984 18.24 8.06349 18.1983 8.81541 18.1973C10.0053 18.1956 10.7125 18.354 11.7305 18.8505C12.0484 19.0054 12.3295 19.1323 12.3551 19.1323C12.3808 19.1323 12.4017 18.4485 12.4017 17.6127V16.093L11.9564 15.8859C11.0332 15.4564 9.44112 15.2659 7.72743 15.3799ZM104.014 20.1009L102.341 20.5533V26.3611V32.1688L105.384 32.1317C108.088 32.0988 108.51 32.0757 109.181 31.9239C110.963 31.521 112.106 30.61 112.505 29.2758C112.644 28.8099 112.669 28.5489 112.645 27.8247C112.617 26.9982 112.596 26.9017 112.311 26.3172C111.818 25.3031 110.942 24.6597 109.541 24.2826C109.045 24.149 108.568 24.103 107.319 24.0681L105.729 24.0237L105.707 21.8361L105.686 19.6486L104.014 20.1009ZM16.6098 20.1166C14.106 20.7832 12.5604 23.1042 12.5639 26.1924C12.5684 30.0345 14.8377 32.4023 18.5123 32.399C19.2232 32.3984 20.4534 32.2036 21.1055 31.9885C21.7092 31.7892 22.9091 31.2082 23.035 31.054C23.0973 30.9776 23.0196 30.6587 22.7477 29.8759L22.375 28.8024L22.1634 28.913C21.1225 29.4573 19.4595 29.7829 18.5232 29.6257C17.1759 29.3996 16.1847 28.5556 15.9858 27.4653L15.9297 27.1582H19.7375H23.5452L23.5016 25.9502C23.453 24.6034 23.2898 23.816 22.877 22.9372C22.2006 21.4969 20.8437 20.3923 19.3579 20.0724C18.5797 19.9048 17.3297 19.9249 16.6098 20.1166ZM39.8208 20.0759C38.8854 20.2823 38.1467 20.713 37.3822 21.4976C36.5751 22.3258 36.1297 23.1447 35.8401 24.3327C35.5902 25.3577 35.5908 27.1419 35.8414 28.1C36.3862 30.1835 37.7539 31.627 39.6979 32.1703C40.2209 32.3166 40.543 32.3457 41.6159 32.3444C42.7377 32.343 43.0051 32.3158 43.6719 32.1352C44.4423 31.9265 45.278 31.5792 45.897 31.2106L46.2301 31.0122L45.8462 29.9246C45.6351 29.3265 45.431 28.8454 45.3927 28.8557C45.3545 28.8659 45.0101 29.0044 44.6276 29.1633C43.6671 29.5624 42.4818 29.7561 41.7 29.6416C40.34 29.4425 39.3364 28.617 39.0879 27.493L39.0139 27.1582H42.8026H46.5912L46.5555 25.8273C46.5224 24.5938 46.5008 24.4399 46.2602 23.7229C45.9246 22.7226 45.5435 22.0877 44.8742 21.4134C44.2392 20.7738 43.2998 20.2607 42.4219 20.074C41.726 19.9261 40.4956 19.9269 39.8208 20.0759ZM52.8584 20.0697C52.2891 20.2325 51.9172 20.4125 51.328 20.8106C51.0275 21.0136 50.765 21.1797 50.7448 21.1797C50.7245 21.1797 50.6421 20.9586 50.5615 20.6883L50.4151 20.1969H48.9773H47.5394V29.0843V37.9716L47.7577 37.9159C47.8778 37.8853 48.6303 37.6536 49.43 37.4011L50.8839 36.9419L50.9052 34.4302L50.9265 31.9184L51.2683 32.072C52.0043 32.4029 53.2579 32.4852 54.2923 32.2707C57.1129 31.6857 58.9178 28.8375 58.7157 25.2904C58.6523 24.1766 58.4345 23.317 58.0001 22.4665C57.3652 21.2235 56.2153 20.3031 54.97 20.0411C54.4121 19.9237 53.3166 19.9386 52.8584 20.0697ZM64.09 20.0735C62.9129 20.3337 61.9542 20.8778 61.1306 21.753C60.4592 22.4665 59.9534 23.3811 59.6942 24.3502C59.4486 25.2685 59.4497 27.164 59.6962 28.1C60.2499 30.2014 61.6604 31.7057 63.5367 32.1958C64.6464 32.4857 65.9878 32.4366 67.2439 32.0601C67.9628 31.8445 68.9766 31.3462 68.9766 31.2083C68.9766 31.15 68.8085 30.6358 68.6029 30.0655C68.3053 29.2394 68.2028 29.0372 68.0992 29.0712C68.0277 29.0947 67.6065 29.2469 67.1633 29.4096C66.4499 29.6714 66.288 29.7018 65.753 29.6745C65.3119 29.652 65.0127 29.5816 64.6461 29.414C63.4948 28.8877 62.8517 27.683 62.8517 26.0526C62.8517 24.4579 63.4725 23.3523 64.6787 22.7996C65.268 22.5295 66.5047 22.4955 67.1898 22.7306C67.4703 22.8269 67.8413 22.9964 68.0143 23.1073C68.1872 23.2183 68.3475 23.309 68.3705 23.309C68.3936 23.309 68.4125 22.6989 68.4125 21.9532V20.5973L67.9761 20.3943C67.736 20.2827 67.2917 20.1379 66.9888 20.0727C66.3068 19.9259 64.7561 19.9264 64.09 20.0735ZM82.3337 20.0809C81.9898 20.144 81.4821 20.2729 81.2055 20.3673C80.6068 20.5716 79.4534 21.1671 79.4534 21.272C79.4534 21.4104 80.4214 23.309 80.492 23.309C80.5306 23.309 80.7603 23.2169 81.0023 23.1043C82.077 22.6043 83.55 22.4308 84.4399 22.6993C84.956 22.8551 85.4213 23.3002 85.5601 23.7709C85.6487 24.0712 85.6918 24.4491 85.6388 24.4596C85.6277 24.4617 84.9658 24.4963 84.168 24.5362C82.4338 24.6231 81.6455 24.7746 80.7832 25.1862C79.2591 25.9138 78.5432 27.1637 78.6728 28.8709C78.823 30.8505 80.2263 32.2307 82.2353 32.3749C83.3951 32.458 84.4156 32.1858 85.3621 31.5408L85.8999 31.1742L86.1433 31.664L86.3866 32.1538H87.7151H89.0437L89.0424 27.8748C89.0408 23.2162 89.0159 22.8949 88.5855 22.0011C88.1211 21.0366 87.0512 20.3041 85.7671 20.0714C84.9654 19.9262 83.1482 19.9312 82.3337 20.0809ZM24.5709 26.1754V32.1538L27.5327 32.1522C30.4505 32.1507 31.1513 32.1065 32.1062 31.8643C33.2514 31.5738 34.22 30.8664 34.6697 29.9921C34.9189 29.5077 34.9269 29.4605 34.9269 28.4685C34.9269 27.4753 34.9195 27.4314 34.6771 26.9944C34.3603 26.4227 33.8105 25.9937 33.0963 25.7603L32.5433 25.5796L32.9759 25.4009C33.9754 24.9881 34.4116 24.359 34.469 23.2475C34.5338 21.9925 34.1465 21.2795 33.1112 20.7476C32.1067 20.2315 31.8117 20.2 27.9759 20.1983L24.5709 20.1969V26.1754ZM69.0572 21.5482V22.8995H70.669H72.2808V27.5267V32.1538H74.0135H75.7462V27.5286V22.9032L77.2108 22.8809L78.6755 22.8586L79.0236 21.5892C79.2151 20.891 79.372 20.2922 79.3723 20.2584C79.3726 20.2245 77.0518 20.1969 74.215 20.1969H69.0572V21.5482ZM91.8637 22.2239C91.8623 26.1439 91.6173 27.9681 90.9699 28.8763C90.6938 29.2636 90.105 29.6716 89.7145 29.746C89.5673 29.7741 89.4473 29.839 89.4482 29.8903C89.4515 30.0962 90.3262 32.3562 90.4142 32.386C90.6173 32.4548 91.5315 32.2087 92.1062 31.9306C93.2579 31.3732 94.1708 30.1223 94.5214 28.6211C94.7379 27.6941 94.9269 25.5942 94.9269 24.1148V22.8995H96.2566H97.5864V27.5267V32.1538H99.2788H100.971V26.1754V20.1969H96.4178H91.8644L91.8637 22.2239ZM18.8087 22.6457C19.4063 22.9274 19.8763 23.6104 20.012 24.3941L20.0652 24.7013H17.9572H15.8491L15.9027 24.3941C16.0399 23.6061 16.6205 22.833 17.2482 22.6022C17.6661 22.4485 18.4361 22.47 18.8087 22.6457ZM30.6297 22.71C31.4745 23.1025 31.4736 24.1336 30.6279 24.5522C30.3069 24.7112 30.0923 24.7426 29.1445 24.7699L28.0364 24.8017V23.6381V22.4743L29.1445 22.5045C30.0633 22.5297 30.317 22.5647 30.6297 22.71ZM41.9701 22.7059C42.4667 22.9573 42.812 23.3944 42.9868 23.9924C43.2122 24.7638 43.3856 24.7013 41.0219 24.7013H38.9369L39.0042 24.3353C39.2774 22.8491 40.7047 22.065 41.9701 22.7059ZM54.1175 22.647C54.7589 22.9429 55.1243 23.6303 55.2826 24.8381C55.512 26.5893 55.048 28.4194 54.1769 29.1985C53.6266 29.6907 53.0471 29.8847 52.254 29.8419C51.8003 29.8174 51.5078 29.7539 51.2667 29.6275L50.9242 29.4479V26.5945V23.7409L51.3145 23.3699C52.1675 22.5592 53.2962 22.268 54.1175 22.647ZM108.149 26.635C108.747 26.8152 108.993 27.0133 109.155 27.4437C109.331 27.9119 109.284 28.6308 109.056 28.9428C108.848 29.2288 108.442 29.5083 108.073 29.6191C107.912 29.6673 107.319 29.7283 106.754 29.7546L105.726 29.8023V28.1527V26.503H106.719C107.397 26.503 107.85 26.5448 108.149 26.635ZM85.6589 27.9594V29.1703L85.4279 29.309C84.817 29.6757 83.6454 29.7991 82.9759 29.5672C82.1128 29.2684 81.7558 28.2254 82.2669 27.4961C82.6043 27.0145 83.3635 26.8316 85.3164 26.761L85.6589 26.7487V27.9594ZM30.5269 27.1225C30.7615 27.1933 31.0806 27.371 31.2407 27.5201C31.4981 27.7598 31.5338 27.843 31.5633 28.2724C31.5914 28.6791 31.5666 28.8001 31.4058 29.0405C31.0165 29.6227 30.2532 29.8607 28.7752 29.8607H27.9558V28.4276V26.9944H29.0291C29.768 26.9944 30.2347 27.0342 30.5269 27.1225Z" fill="#002F6C"/>
</g>
<defs>
<clipPath id="clip0_103_419">
<rect width="120" height="38" fill="white"/>
</clipPath>
</defs>
</svg>
