<svg width="80" height="20" viewBox="0 0 80 20" fill="none" xmlns="http://www.w3.org/2000/svg">
<g clip-path="url(#clip0_103_374)">
<path fill-rule="evenodd" clip-rule="evenodd" d="M7.11266 0.000488281C5.62846 0.000488281 3.86877 1.42738 2.41729 3.82626C0.904455 6.31068 0.00195312 9.38634 0.00195312 12.0573C0.00195312 15.9674 2.19624 19.9106 7.11306 19.9106C12.024 19.9106 14.2242 15.9674 14.2242 12.0573C14.2242 9.38634 13.3221 6.31068 11.8166 3.82626C10.3515 1.42738 8.59197 0.000488281 7.11266 0.000488281ZM45.5108 5.86695H50.4886V18.8443H55.8219V5.86695H60.7977V1.06654H45.5108V5.86634V5.86695ZM72.1755 5.86695H79.9977V1.06654H72.1755C64.9892 1.06654 61.1512 4.63957 61.1512 9.95482C61.1512 15.2701 64.9892 18.8443 72.1755 18.8443H79.9977V14.0441H72.1755C68.8495 14.0441 66.6633 12.8553 66.6633 9.95543C66.6633 7.05552 68.8495 5.86695 72.1755 5.86695ZM34.6633 1.06654L31.8209 11.6773L28.9785 1.06654H19.5573V18.8443H24.8886V4.38439L28.7631 18.8443H34.8787L38.7553 4.37565V18.8443H44.0886V1.06654H34.6633Z" fill="#E30613"/>
</g>
<defs>
<clipPath id="clip0_103_374">
<rect width="80" height="20" fill="white"/>
</clipPath>
</defs>
</svg>
