<svg width="100" height="30" viewBox="0 0 100 30" fill="none" xmlns="http://www.w3.org/2000/svg">
<g clip-path="url(#clip0_103_383)">
<path fill-rule="evenodd" clip-rule="evenodd" d="M1.70599 20.4426C6.40191 27.9854 15.6625 27.1171 19.8751 22.6291C19.8983 22.6042 19.8983 22.4516 19.8064 22.4737C15.4497 23.5239 11.5034 22.3558 8.83592 19.9198C3.0925 14.6735 3.70298 7.0872 8.15695 2.51016C8.94455 1.70055 9.98415 1.06881 10.9267 0.497649C11.0515 0.422939 10.9616 0.235197 10.8215 0.274681C2.85595 2.54191 -2.9307 12.9951 1.70599 20.4426Z" fill="#0078A8"/>
<path fill-rule="evenodd" clip-rule="evenodd" d="M17.5193 0.00462156C8.60982 0.262041 4.75496 8.68391 6.56614 14.5738C6.57598 14.6063 6.70931 14.6829 6.73535 14.5931C7.99124 10.3074 10.973 7.49146 14.4237 6.41611C21.8542 4.10049 28.1593 8.44236 29.9284 14.5844C30.2412 15.6716 30.2748 16.8848 30.3018 17.9851C30.3056 18.1302 30.5136 18.1475 30.5482 18.0068C32.54 9.99733 26.3165 -0.24912 17.5193 0.00462156Z" fill="#EF4056"/>
<path fill-rule="evenodd" clip-rule="evenodd" d="M27.3105 23.7761C31.519 15.9682 26.1814 8.45231 20.2066 7.08257C20.1738 7.07483 20.0418 7.15167 20.1068 7.21922C23.1733 10.4341 24.1165 14.407 23.3269 17.9166C21.6269 25.4743 14.7524 28.7474 8.5816 27.2151C7.48952 26.9439 6.42832 26.3683 5.46668 25.8446C5.33991 25.7755 5.22163 25.9458 5.32525 26.0463C11.2344 31.7497 23.1554 31.4853 27.3105 23.7761Z" fill="#FFD530"/>
<path d="M51.607 4.25806C53.8085 4.25806 55.7089 4.80813 57.3081 5.90827C58.928 6.98765 60.1638 8.48218 61.0153 10.3919H56.6538C55.3869 8.73127 53.7047 7.90097 51.607 7.90097C49.717 7.90097 48.1386 8.57559 46.8717 9.92482C45.6255 11.274 45.0025 12.9658 45.0025 15C45.0025 17.0342 45.6255 18.7259 46.8717 20.0752C48.1386 21.4244 49.717 22.099 51.607 22.099C53.7254 22.099 55.4077 21.2687 56.6538 19.6081H61.0153C60.1638 21.5178 58.928 23.0227 57.3081 24.1229C55.7089 25.2022 53.8085 25.7419 51.607 25.7419C48.554 25.7419 46.0098 24.7248 43.9744 22.6906C41.9391 20.6356 40.9214 18.0721 40.9214 15C40.9214 11.9279 41.9391 9.37475 43.9744 7.34053C46.0098 5.28555 48.554 4.25806 51.607 4.25806Z" fill="#222222"/>
<path d="M78.6381 4.66283V8.30574H68.6068V25.3372H64.5257V4.66283H78.6381Z" fill="#222222"/>
<path d="M99.1911 25.3372H93.8016L85.8263 17.1484V25.3372H81.7452V4.66283H85.8263V13.0384L94.0508 4.66283H99.1911L89.0974 15L99.1911 25.3372Z" fill="#222222"/>
</g>
<defs>
<clipPath id="clip0_103_383">
<rect width="100" height="30" fill="white"/>
</clipPath>
</defs>
</svg>
