<svg width="70" height="70" viewBox="0 0 70 70" fill="none" xmlns="http://www.w3.org/2000/svg">
<path d="M39.5 49.5L55.5 36L57 38.5L58.5 42V45L55.5 48.5L50.8229 49.5H39.5Z" fill="#FED119"/>
<path fill-rule="evenodd" clip-rule="evenodd" d="M45.5625 19.1491C48.9251 19.8391 51.529 22.3092 52.427 25.6608C52.7417 26.8354 52.7417 28.776 52.4269 29.9597C52.1478 31.0098 51.5693 32.2167 50.9579 33.0244L50.4837 33.651L51.6681 33.7073C52.3998 33.7422 53.1144 33.8385 53.5376 33.9596C56.6247 34.8426 58.9435 37.1973 59.8125 40.3322C60.0625 41.234 60.0625 43.7359 59.8125 44.6377C58.9315 47.8155 56.5899 50.1584 53.3908 51.0629C52.784 51.2345 51.9364 51.2428 34.9944 51.2428C18.0524 51.2428 17.2048 51.2345 16.598 51.0629C13.3989 50.1584 11.0573 47.8155 10.1763 44.6377C10.0414 44.151 10 43.6456 10 42.4849C10 40.8364 10.1003 40.29 10.634 39.0338C11.7281 36.4586 14.2339 34.3928 16.9188 33.8528L17.5821 33.7194L17.1284 33.1361C16.5405 32.3804 15.9807 31.2607 15.6518 30.183C15.4156 29.4091 15.3895 29.173 15.3895 27.807C15.3895 26.4409 15.4156 26.2048 15.6518 25.4309C16.6706 22.0925 19.3969 19.6351 22.6713 19.1038C23.6819 18.9398 44.7459 18.9815 45.5625 19.1491ZM31.4025 22.8541L32.0099 23.7726L34.7009 23.8082C37.7383 23.8485 37.7351 23.8477 38.1242 24.6332C38.3723 25.1336 38.3723 25.392 38.1242 25.8924C37.7437 26.6606 37.6816 26.6778 35.1657 26.7112L32.9395 26.7409V27.8057C32.9395 29.6727 32.4638 31.2167 31.4098 32.7714L30.7893 33.6866L37.8579 33.6554C44.4047 33.6264 44.9662 33.6108 45.4647 33.4445C48.0844 32.5704 49.6724 30.4427 49.6724 27.807C49.6724 26.4336 49.2979 25.3207 48.4703 24.2353C47.5789 23.066 46.0834 22.1965 44.6329 22.0041C44.4715 21.9827 41.2919 21.9585 37.5673 21.9505L30.7952 21.9358L31.4025 22.8541ZM22.5639 22.1887C20.5824 22.7712 19.0039 24.3852 18.4932 26.3513C18.2835 27.1584 18.2873 28.4623 18.5018 29.2748C19.0285 31.2705 20.5723 32.835 22.616 33.4442C23.5342 33.718 24.9557 33.6792 25.943 33.3536C27.9119 32.7042 29.4342 31.0183 29.8581 29.0175C30.6452 25.3021 27.6394 21.7632 23.885 21.9851C23.4527 22.0106 22.8583 22.1022 22.5639 22.1887ZM41.893 23.8873C42.226 24.0231 42.6218 24.489 42.7404 24.8848C42.8846 25.3662 42.7367 25.909 42.358 26.2883C41.9988 26.648 41.7504 26.7307 41.0305 26.7302C40.3257 26.7298 39.8952 26.5177 39.593 26.022C39.1858 25.3543 39.4257 24.4052 40.1063 23.9902C40.4433 23.7847 41.4935 23.7242 41.893 23.8873ZM41.2295 36.8339C41.3408 36.9551 41.6368 37.3733 41.8874 37.7635L42.3429 38.473L44.9067 38.4732C47.7268 38.4733 47.9157 38.5073 48.3444 39.0917C48.6283 39.4787 48.6283 40.4028 48.3444 40.7898C47.9275 41.3582 47.6841 41.4083 45.3375 41.4083L43.2044 41.4085L43.2682 41.9726C43.4693 43.75 42.7113 46.1798 41.4258 47.8784L41.0565 48.3665L46.6609 48.3368L52.2655 48.3072L53.0483 48.0319C54.8872 47.3853 56.1607 46.1092 56.7778 44.2952C57.001 43.639 57.0441 43.3461 57.0441 42.4849C57.0441 41.6215 57.0014 41.3325 56.7765 40.6746C56.054 38.5612 54.3336 37.0799 52.185 36.7212C51.9064 36.6747 49.2818 36.6315 46.3528 36.6252L41.0271 36.6137L41.2295 36.8339ZM32.7291 36.9039C31.6584 37.2345 30.4652 38.0795 29.7532 39.0111C28.8025 40.2553 28.4039 42.2307 28.7809 43.8299C29.2435 45.7915 30.8301 47.4749 32.7927 48.0865C33.7423 48.3824 35.1669 48.383 36.1197 48.0878C37.646 47.615 38.9815 46.4805 39.6847 45.0596C41.3942 41.6052 39.2593 37.3985 35.4497 36.7145C34.7414 36.5874 33.4664 36.6761 32.7291 36.9039ZM25.5424 36.8339C25.6312 36.9551 25.9029 37.3514 26.1462 37.7146C26.3895 38.0778 26.6042 38.3751 26.6234 38.3751C26.6427 38.3751 26.7789 38.166 26.9261 37.9103C27.0735 37.6546 27.3448 37.2583 27.5291 37.0296L27.8643 36.6137H26.6226H25.3809L25.5424 36.8339ZM16.9131 36.9564C15.171 37.5093 13.8316 38.8553 13.2128 40.6746C12.9951 41.3149 12.9458 41.6358 12.9422 42.436C12.9302 45.1591 14.5652 47.3186 17.2505 48.1262C18.1611 48.4 19.5826 48.3557 20.5611 48.0229C22.3819 47.4036 23.6717 46.1144 24.2906 44.2952C24.5138 43.639 24.5569 43.3461 24.5569 42.4849C24.5569 41.6215 24.5142 41.3325 24.2893 40.6746C23.846 39.3782 23.1105 38.3914 22.051 37.6719C20.5435 36.6482 18.6952 36.3908 16.9131 36.9564ZM52.3075 38.6444C52.8428 38.9173 53.0483 39.2769 53.0483 39.9408C53.0483 40.9053 52.4834 41.4082 51.3996 41.4083C50.3105 41.4086 49.7213 40.8934 49.7213 39.9408C49.7213 39.3005 50.0071 38.8211 50.5156 38.6087C50.9728 38.4176 51.8989 38.4361 52.3075 38.6444ZM26.1462 47.2553C25.9029 47.6185 25.6312 48.0148 25.5424 48.1359L25.3809 48.3561H26.6226H27.8643L27.5291 47.9402C27.3448 47.7116 27.0735 47.3153 26.9261 47.0596C26.7789 46.8039 26.6427 46.5948 26.6234 46.5948C26.6042 46.5948 26.3895 46.892 26.1462 47.2553Z" fill="#222222"/>
</svg>
