<svg width="70" height="70" viewBox="0 0 70 70" fill="none" xmlns="http://www.w3.org/2000/svg">
<path d="M24.5 38.5L44.5 26L45 39L39 39.5L24.5 38.5Z" fill="#FED119"/>
<path fill-rule="evenodd" clip-rule="evenodd" d="M27.7245 10.1607C26.5979 10.3495 25.0258 10.8917 23.9039 11.4784C19.785 13.6325 17.064 18.0595 17.0605 22.6127L17.0597 23.5413L16.2403 23.7003C13.1573 24.2981 11 26.9488 11 30.1394C11 33.3255 13.1535 35.9756 16.2325 36.5784L17.0441 36.7374L17.0865 40.794C17.1276 44.7235 17.137 44.8875 17.385 46.0303C18.9234 53.1154 24.2279 58.3394 31.3415 59.7751C32.3077 59.9701 32.7481 60 34.6552 60C36.5651 60 37.0019 59.9702 37.9741 59.774C45.0886 58.3387 50.3764 53.127 51.9256 46.0235C52.1735 44.887 52.1828 44.7243 52.2238 40.7872L52.2662 36.7239L52.9668 36.6045C55.2897 36.2089 57.3223 34.4231 58.0447 32.1432C58.224 31.5769 58.2615 31.2313 58.2615 30.1394C58.2615 29.0474 58.224 28.7018 58.0447 28.1355C57.3212 25.8521 55.29 24.0699 52.9586 23.6728L52.2499 23.5521L52.2495 22.6181C52.2487 20.7242 51.7196 18.6536 50.7747 16.8466C48.9288 13.3169 45.4195 10.7906 41.4733 10.1506C40.1999 9.9441 28.968 9.95231 27.7245 10.1607ZM41.8397 13.258C43.6408 13.745 45.1256 14.5938 46.3924 15.8606C47.6568 17.125 48.5035 18.6045 48.998 20.4134L49.2652 21.3909L49.2982 31.9966C49.3212 39.3631 49.2974 42.9721 49.2206 43.813C48.6533 50.0211 44.3191 55.1184 38.3193 56.6336C34.9516 57.4841 31.2657 57.1182 28.2217 55.631C24.312 53.7209 21.456 50.1811 20.4403 45.9867C20.0032 44.1816 19.9768 43.3186 20.0121 31.9966L20.0452 21.3909L20.3123 20.4134C21.1033 17.5199 22.9045 15.3002 25.5364 13.9758C26.3475 13.5676 27.664 13.1642 28.5904 13.04C28.9422 12.9928 31.8473 12.9631 35.0462 12.9739L40.8622 12.9937L41.8397 13.258ZM23.9098 24.7389C23.7254 24.8329 23.4835 25.0339 23.3721 25.1858C23.1719 25.4589 23.1697 25.5354 23.1697 32.4853C23.1697 39.4353 23.1719 39.5118 23.3721 39.7849C23.4835 39.9367 23.7254 40.1378 23.9098 40.2317C24.2227 40.3913 24.9372 40.4027 34.6552 40.4027C44.3731 40.4027 45.0877 40.3913 45.4006 40.2317C45.5849 40.1378 45.8269 39.9367 45.9382 39.7849C46.1385 39.5118 46.1406 39.4353 46.1406 32.4853C46.1406 25.5354 46.1385 25.4589 45.9382 25.1858C45.8269 25.0339 45.5849 24.8329 45.4006 24.7389C45.0877 24.5793 44.3731 24.568 34.6552 24.568C24.9372 24.568 24.2227 24.5793 23.9098 24.7389ZM17.0604 30.1394C17.0604 34.1664 17.1548 33.8372 16.1118 33.4469C15.3394 33.1579 14.5352 32.3523 14.2243 31.556C13.9041 30.7357 13.9041 29.543 14.2243 28.7227C14.6301 27.6833 15.9232 26.6467 16.8405 26.6255L17.0604 26.6204V30.1394ZM53.1986 26.8318C53.971 27.1208 54.7752 27.9264 55.086 28.7227C55.2619 29.1732 55.3146 29.5005 55.3146 30.1394C55.3146 30.7782 55.2619 31.1055 55.086 31.556C54.7752 32.3523 53.971 33.1579 53.1986 33.4469C52.1555 33.8372 52.2499 34.1664 52.2499 30.1394C52.2499 26.1123 52.1555 26.4415 53.1986 26.8318ZM43.257 32.4853V37.4705H34.6552H26.0533V32.4853V27.5001H34.6552H43.257V32.4853ZM28.1129 43.3056C27.6437 43.5527 27.4012 43.9266 27.3538 44.4767C27.2795 45.3392 27.805 45.9689 28.6608 46.0426C29.5233 46.1169 30.153 45.5914 30.2267 44.7356C30.2737 44.1897 30.0646 43.7038 29.6528 43.402C29.2828 43.1308 28.534 43.0839 28.1129 43.3056ZM33.9779 43.3056C33.5086 43.5527 33.2662 43.9266 33.2188 44.4767C33.1445 45.3392 33.67 45.9689 34.5257 46.0426C35.3882 46.1169 36.0179 45.5914 36.0916 44.7356C36.1386 44.1897 35.9295 43.7038 35.5177 43.402C35.1477 43.1308 34.3989 43.0839 33.9779 43.3056ZM39.8428 43.3056C39.3735 43.5527 39.1311 43.9266 39.0837 44.4767C39.0094 45.3392 39.5349 45.9689 40.3907 46.0426C41.2531 46.1169 41.8828 45.5914 41.9565 44.7356C42.0035 44.1897 41.7944 43.7038 41.3826 43.402C41.0126 43.1308 40.2638 43.0839 39.8428 43.3056Z" fill="#222222"/>
</svg>
