<svg width="70" height="70" viewBox="0 0 70 70" fill="none" xmlns="http://www.w3.org/2000/svg">
<path d="M54 28.5L25.5 41.5L54 42V28.5Z" fill="#FED119"/>
<path fill-rule="evenodd" clip-rule="evenodd" d="M10 25.3945V29.7891H12.5879H15.1758V35.1602V40.5312H12.5879H10V44.9258V49.3203H35H60V44.9258V40.5312H57.8027H55.6055V35.1602V29.7891H57.8027H60V25.3945V21H35H10V25.3945ZM28.6523 25.3945V26.8594H26.0645H23.4766V35.1602V43.4609H26.0645H28.6523V44.9258V46.3906H20.791H12.9297V44.9258V43.4609H15.5176H18.1055V35.1602V26.8594H15.5176H12.9297V25.3945V23.9297H20.791H28.6523V25.3945ZM57.0703 25.3945V26.8594H44.375H31.6797V25.3945V23.9297H44.375H57.0703V25.3945ZM52.6758 35.1602V40.5312H39.5898H26.5039V35.1602V29.7891H39.5898H52.6758V35.1602ZM57.0703 44.9258V46.3906H44.375H31.6797V44.9258V43.4609H44.375H57.0703V44.9258Z" fill="#222222"/>
</svg>
