<svg width="70" height="70" viewBox="0 0 70 70" fill="none" xmlns="http://www.w3.org/2000/svg">
<path d="M14 54L57 46.5L58 47.5L58.5 50L56 54L52.5 55.5H34H17L14 54Z" fill="#FED119"/>
<path fill-rule="evenodd" clip-rule="evenodd" d="M33.581 14.0985C31.7643 14.4547 30.3571 15.2391 29.1006 16.5964C28.4829 17.2636 27.8397 18.2854 27.6063 18.9705C27.4646 19.3863 27.4076 19.4402 26.8957 19.6414C26.5896 19.7617 25.7798 20.1366 25.0961 20.4744C19.4652 23.2569 15.1313 28.6166 13.5574 34.7445C13.0122 36.8671 12.9625 37.3745 12.9117 41.3439C12.8685 44.7202 12.8476 45.0986 12.7021 45.1404C12.6133 45.166 12.2644 45.3223 11.927 45.4879C11.2183 45.8355 10.6616 46.4166 10.2663 47.2215C10.0141 47.7351 9.99644 47.8528 10.0005 48.9949C10.0055 50.4507 10.1567 51.102 10.7841 52.3711C11.811 54.4485 13.6629 55.9509 15.9488 56.5614L16.7487 56.7749H35H53.2514L54.0744 56.5555C56.3416 55.951 58.1899 54.4468 59.2159 52.3711C59.8433 51.102 59.9945 50.4507 59.9996 48.9949C60.0035 47.8741 59.9825 47.7265 59.7485 47.2333C59.3784 46.4534 58.7884 45.8386 58.0731 45.4879C57.7357 45.3223 57.3824 45.1643 57.2882 45.1367C57.1297 45.0902 57.117 44.8516 57.117 41.9236C57.117 39.7667 57.0724 38.4041 56.9768 37.6391C55.9855 29.7032 50.8426 22.8848 43.5425 19.8281C42.5544 19.4143 42.5417 19.4048 42.3916 18.9641C42.0174 17.8658 40.836 16.3319 39.7403 15.5217C39.0194 14.9887 37.9239 14.4638 37.0684 14.2415C36.0972 13.9892 34.4774 13.9228 33.581 14.0985ZM36.3768 17.1499C37.6691 17.5295 38.8907 18.5274 39.4417 19.6536C39.9698 20.7329 39.9875 20.9991 39.9894 27.8851C39.9912 34.8932 40.0022 35.0448 40.6125 36.4689C41.5887 38.7466 43.5421 40.44 45.9363 41.0844C46.5142 41.24 46.9855 41.2886 47.9179 41.2886C49.4058 41.2886 50.2634 41.0853 51.5246 40.4339C52.399 39.9823 53.6855 38.9892 53.9086 38.5936C54.0209 38.3945 54.0363 38.4208 54.0963 38.915C54.1323 39.211 54.1661 40.6973 54.1714 42.2179L54.1811 44.9825H35H15.819L15.8287 42.2179C15.8339 40.6973 15.8678 39.211 15.9037 38.915C15.9638 38.4208 15.9792 38.3945 16.0914 38.5936C16.3145 38.9892 17.601 39.9823 18.4754 40.4339C19.7367 41.0853 20.5943 41.2886 22.0822 41.2886C23.569 41.2886 24.4293 41.0849 25.681 40.437C27.2746 39.612 28.4699 38.3915 29.2249 36.8186C29.9754 35.2548 29.94 35.6603 30.0061 27.8565C30.0645 20.9427 30.0679 20.8524 30.2823 20.2801C30.8554 18.75 31.9744 17.682 33.5321 17.1784C34.2321 16.952 35.6546 16.9378 36.3768 17.1499ZM27.0726 28.2235C27.0723 31.1705 27.0321 33.8237 26.9832 34.1197C26.5992 36.4472 24.7421 38.1507 22.4247 38.3012C21.4412 38.3651 20.7114 38.2166 19.8208 37.771C18.2986 37.0094 17.2158 35.3839 17.1604 33.7772C17.1422 33.2491 17.1914 33.0839 17.65 32.1336C19.2628 28.7922 21.4401 26.2719 24.4309 24.2847C25.2851 23.7171 26.8255 22.8662 26.9998 22.8657C27.0401 22.8657 27.0729 25.2766 27.0726 28.2235ZM43.8566 23.2664C47.5671 25.1644 50.867 28.7016 52.5337 32.5675C52.9057 33.4306 52.9163 33.4848 52.8256 34.0605C52.5343 35.9078 51.3732 37.3483 49.6148 38.0439C49.1346 38.234 48.8635 38.2701 47.9179 38.2701C46.9722 38.2701 46.7012 38.234 46.2209 38.0439C44.4952 37.3612 43.3128 35.913 43.0168 34.1197C42.9106 33.4753 42.8949 22.8655 43.0003 22.8657C43.0407 22.8658 43.426 23.0462 43.8566 23.2664ZM56.837 48.2039C57.0427 48.3711 57.0666 48.4665 57.0547 49.0751C57.0215 50.7827 55.9645 52.4524 54.4257 53.2281C53.233 53.8293 54.5869 53.7901 35 53.7901C15.3296 53.7901 16.7698 53.8337 15.5254 53.2008C14.0137 52.4318 12.9586 50.7423 12.9396 49.06C12.9329 48.4705 12.9594 48.369 13.1631 48.2037C13.3891 48.0202 13.8551 48.0162 35 48.0162C56.1516 48.0162 56.6108 48.0201 56.837 48.2039Z" fill="#222222"/>
</svg>
