<svg width="244" height="30" viewBox="0 0 244 30" fill="none" xmlns="http://www.w3.org/2000/svg">
<path d="M12.9602 0L26 23.0148L21.9847 30L12.9602 14.1319L3.89602 30L0 23.0148L12.9602 0Z" fill="#222222"/>
<path d="M23.25 15L31.9801 0L36 6.93548L31.371 15H23.25Z" fill="#FED119"/>
<path d="M39.9276 30L31.3756 15H39.3982L44 22.965L39.9276 30Z" fill="#757575"/>
<path d="M57.825 5L63.925 18.075L70.025 5H73.75V21.6H70.475V11.2L65.65 21.6H62.1L57.275 11.2V21.6H54V5H57.825Z" fill="#222222"/>
<path d="M84.4334 18H87.8334C87.3667 19.2 86.6001 20.1583 85.5334 20.875C84.4667 21.575 83.2834 21.925 81.9834 21.925C80.1334 21.925 78.6001 21.3333 77.3834 20.15C76.1667 18.95 75.5584 17.45 75.5584 15.65C75.5584 13.8667 76.1501 12.3833 77.3334 11.2C78.5167 10 80.0251 9.4 81.8584 9.4C83.6751 9.4 85.1584 9.99167 86.3084 11.175C87.4584 12.3583 88.0334 13.8333 88.0334 15.6C88.0334 16.15 88.0167 16.5167 87.9834 16.7H78.8334C79.0001 17.4167 79.3667 17.9833 79.9334 18.4C80.5167 18.8167 81.2001 19.025 81.9834 19.025C83.0667 19.025 83.8834 18.6833 84.4334 18ZM78.9084 14.35H84.6834C84.5834 13.6667 84.2751 13.125 83.7584 12.725C83.2417 12.3083 82.6084 12.1 81.8584 12.1C81.1251 12.1 80.4751 12.3083 79.9084 12.725C79.3417 13.1417 79.0084 13.6833 78.9084 14.35Z" fill="#222222"/>
<path d="M100.16 9.725V12.475H95.7104V21.6H92.5604V12.475H88.1354V9.725H100.16Z" fill="#222222"/>
<path d="M106.689 9.4C108.505 9.4 109.955 9.825 111.039 10.675C112.139 11.525 112.689 12.7083 112.689 14.225V21.6H109.539V20.7C108.722 21.5167 107.439 21.925 105.689 21.925C104.222 21.925 103.072 21.575 102.239 20.875C101.422 20.175 101.014 19.1833 101.014 17.9C101.014 16.5333 101.539 15.5667 102.589 15C103.655 14.4167 104.997 14.125 106.614 14.125H109.539C109.539 13.475 109.28 12.9917 108.764 12.675C108.247 12.3583 107.58 12.2 106.764 12.2C105.314 12.2 104.389 12.675 103.989 13.625H100.739C101.055 12.2417 101.764 11.1917 102.864 10.475C103.98 9.75833 105.255 9.4 106.689 9.4ZM109.539 16.975V16.475H106.614C104.98 16.475 104.164 16.9583 104.164 17.925C104.164 18.3583 104.347 18.7167 104.714 19C105.097 19.2667 105.63 19.4 106.314 19.4C107.214 19.4 107.972 19.1917 108.589 18.775C109.222 18.3417 109.539 17.7417 109.539 16.975Z" fill="#222222"/>
<path d="M116.192 9.725H126.367V21.6H123.217V12.475H119.342V14.675C119.342 19.2917 117.792 21.6 114.692 21.6H113.467V18.675H114.367C114.784 18.675 115.126 18.55 115.392 18.3C115.659 18.05 115.842 17.6917 115.942 17.225C116.042 16.7583 116.109 16.3417 116.142 15.975C116.176 15.5917 116.192 15.125 116.192 14.575V9.725Z" fill="#222222"/>
<path d="M130.104 9.725H140.279V21.6H137.129V12.475H133.254V14.675C133.254 19.2917 131.704 21.6 128.604 21.6H127.379V18.675H128.279C128.695 18.675 129.037 18.55 129.304 18.3C129.57 18.05 129.754 17.6917 129.854 17.225C129.954 16.7583 130.02 16.3417 130.054 15.975C130.087 15.5917 130.104 15.125 130.104 14.575V9.725Z" fill="#222222"/>
<path d="M159.628 21.6H156.353V7.925H148.553V21.6H145.278V5H159.628V21.6Z" fill="#757575"/>
<path d="M174.792 15.65C174.792 17.3667 174.233 18.8417 173.117 20.075C172.017 21.3083 170.55 21.925 168.717 21.925C167.233 21.925 166.075 21.5083 165.242 20.675V26.7H162.092V9.725H165.242V10.625C166.058 9.80833 167.217 9.4 168.717 9.4C170.55 9.4 172.017 10.0167 173.117 11.25C174.233 12.4833 174.792 13.95 174.792 15.65ZM171.642 15.65C171.642 14.7167 171.342 13.925 170.742 13.275C170.142 12.625 169.383 12.3 168.467 12.3C167.55 12.3 166.758 12.5917 166.092 13.175C165.442 13.7583 165.117 14.5833 165.117 15.65C165.117 16.7167 165.45 17.55 166.117 18.15C166.783 18.7333 167.567 19.025 168.467 19.025C169.383 19.025 170.142 18.6917 170.742 18.025C171.342 17.3583 171.642 16.5667 171.642 15.65Z" fill="#757575"/>
<path d="M177.617 11.2C178.85 10 180.392 9.4 182.242 9.4C184.092 9.4 185.625 10 186.842 11.2C188.075 12.3833 188.692 13.875 188.692 15.675C188.692 17.4583 188.075 18.95 186.842 20.15C185.625 21.3333 184.092 21.925 182.242 21.925C180.392 21.925 178.85 21.3333 177.617 20.15C176.4 18.95 175.792 17.4583 175.792 15.675C175.792 13.875 176.4 12.3833 177.617 11.2ZM184.592 13.25C183.975 12.6167 183.192 12.3 182.242 12.3C181.292 12.3 180.5 12.6167 179.867 13.25C179.25 13.8833 178.942 14.6917 178.942 15.675C178.942 16.6583 179.25 17.4667 179.867 18.1C180.5 18.7167 181.292 19.025 182.242 19.025C183.192 19.025 183.975 18.7167 184.592 18.1C185.225 17.4667 185.542 16.6583 185.542 15.675C185.542 14.6917 185.225 13.8833 184.592 13.25Z" fill="#757575"/>
<path d="M204.278 24.75H201.303V21.6H192.303V24.75H189.328V18.85H190.928C191.661 18 192.028 16.6083 192.028 14.675V9.725H202.278V18.85H204.278V24.75ZM195.178 12.475V14.65C195.178 16.4333 194.953 17.8333 194.503 18.85H199.128V12.475H195.178Z" fill="#757575"/>
<path d="M217.879 9.725L212.229 22.225C211.896 22.9583 211.654 23.475 211.504 23.775C211.354 24.0917 211.146 24.4667 210.879 24.9C210.629 25.35 210.413 25.6417 210.229 25.775C210.046 25.925 209.796 26.0917 209.479 26.275C209.163 26.475 208.821 26.5917 208.454 26.625C208.104 26.675 207.679 26.7 207.179 26.7H205.429V23.95H206.779C207.663 23.95 208.371 23.3667 208.904 22.2L209.354 21.175L204.154 9.725H207.629L211.079 17.375L214.529 9.725H217.879Z" fill="#757575"/>
<path d="M218.664 9.725H221.814V14.325L226.664 9.725H231.039L224.639 15.675L231.014 21.6H226.664L221.814 17.275V21.6H218.664V9.725Z" fill="#757575"/>
<path d="M243.006 9.725V12.475H238.556V21.6H235.406V12.475H230.981V9.725H243.006Z" fill="#757575"/>
</svg>
