<svg width="30" height="30" viewBox="0 0 30 30" fill="none" xmlns="http://www.w3.org/2000/svg">
<path fill-rule="evenodd" clip-rule="evenodd" d="M3.66408 4.05917C2.85368 4.35281 2.76278 5.45141 3.51429 5.86932C3.70356 5.97453 3.78607 5.98713 4.39169 6.00333C5.02984 6.02043 5.06111 6.02577 5.08104 6.12137C5.09252 6.1765 5.35586 9.06713 5.66621 12.545C6.26761 19.2844 6.26203 19.2391 6.56695 19.8442C6.77478 20.2565 6.95654 20.5104 7.29981 20.8679L7.60046 21.181L7.42841 21.4595C6.70994 22.6225 6.90778 24.1496 7.90646 25.1489C8.58503 25.8279 9.59922 26.1338 10.5466 25.9452C11.9668 25.6624 12.9823 24.4315 12.9823 22.9928C12.9823 22.7834 12.9507 22.4907 12.912 22.3423C12.8733 22.1939 12.8417 22.0525 12.8417 22.028C12.8417 22.0003 13.8569 21.9834 15.519 21.9834C18.0499 21.9834 18.1945 21.9879 18.1638 22.0654C18.0586 22.3307 17.9915 22.8334 18.0154 23.1779C18.1799 25.5485 20.8275 26.8038 22.7587 25.4269C23.5192 24.8847 23.9996 23.9505 23.9996 23.0139C23.9996 21.658 23.0508 20.4484 21.7207 20.1085C21.3705 20.019 21.1784 20.0161 15.5866 20.0161C9.23321 20.0161 9.50091 20.0278 9.03551 19.7294C8.78802 19.5708 8.5238 19.2965 8.41395 19.0842L8.34087 18.943L8.49333 18.9194C8.5772 18.9064 12.1462 18.6931 16.4245 18.4453C22.4971 18.0936 24.2427 17.979 24.3834 17.9227C24.4826 17.8831 24.6451 17.7583 24.7446 17.6453L24.9254 17.44L25.9627 13.2948C26.5332 11.0149 27 9.0661 27 8.96413C27 8.62284 26.7775 8.27177 26.4657 8.12095C26.2676 8.02511 26.2491 8.02492 16.7694 8.02492H7.27159L7.24388 7.80243C7.22864 7.68008 7.16352 6.97921 7.09911 6.24498C7.03474 5.51076 6.95879 4.82571 6.93033 4.72266C6.85406 4.44649 6.67164 4.2351 6.40095 4.10915C6.16766 4.00062 6.1287 3.99762 4.98901 4.00066C4.21185 4.00273 3.76544 4.02245 3.66408 4.05917ZM23.986 13.0017C23.5723 14.657 23.218 16.0219 23.1987 16.035C23.146 16.0706 8.11222 16.9458 8.08147 16.9151C8.0584 16.8921 7.4503 10.3036 7.4503 10.0771C7.4503 9.99551 7.78269 9.99223 16.0942 9.99223H24.7381L23.986 13.0017ZM10.4273 22.1126C11.1113 22.4488 11.1808 23.3906 10.5542 23.8301C10.3881 23.9466 10.2979 23.974 10.0385 23.9866C9.75871 24.0003 9.69748 23.9864 9.48314 23.8613C9.17944 23.6839 8.9974 23.3569 8.9974 22.9887C8.9974 22.2705 9.77695 21.7929 10.4273 22.1126ZM21.4445 22.1126C22.1296 22.4493 22.198 23.3906 21.5694 23.8316C21.3853 23.9607 21.3319 23.9741 21.0028 23.9741C20.6815 23.9741 20.6177 23.959 20.4507 23.8434C20.1872 23.661 20.0146 23.3284 20.0146 23.0032C20.0146 22.2704 20.7869 21.7894 21.4445 22.1126Z" fill="#222222"/>
</svg>
