<svg width="20" height="20" viewBox="0 0 20 20" fill="none" xmlns="http://www.w3.org/2000/svg">
<g clip-path="url(#clip0_2601_771)">
<path fill-rule="evenodd" clip-rule="evenodd" d="M18 17.009C18 17.56 17.5067 18 16.9552 18H13.9552C13.83 18.0031 13.7054 17.9797 13.5889 17.9311C13.4724 17.8826 13.3664 17.8099 13.2773 17.7174C13.1881 17.6249 13.1176 17.5145 13.07 17.3928C13.0224 17.2711 12.9986 17.1406 13 17.009V14.009C12.9981 13.8764 13.0215 13.7448 13.0687 13.6219C13.116 13.499 13.1862 13.3872 13.2752 13.2932C13.3642 13.1992 13.4702 13.1248 13.587 13.0744C13.7038 13.0241 13.829 12.9988 13.9552 13H16.9552C17.5076 13 18 13.458 18 14.009V17.009ZM16.9552 11H13.9552C12.2981 11 11 12.352 11 14.009V17.009C11 18.666 12.2981 20 13.9552 20H16.9552C18.6124 20 20 18.666 20 17.009V14.009C20 12.352 18.6124 11 16.9552 11ZM7 17.009C7 17.56 6.50667 18 5.95524 18H2.95524C2.82995 18.0031 2.70536 17.9797 2.58888 17.9311C2.47241 17.8826 2.36643 17.8099 2.27729 17.7174C2.18814 17.6249 2.11765 17.5145 2.07001 17.3928C2.02237 17.2711 1.99856 17.1406 2 17.009V14.009C1.99809 13.8764 2.02145 13.7448 2.06871 13.6219C2.11596 13.499 2.18616 13.3872 2.27517 13.2932C2.36418 13.1992 2.4702 13.1248 2.58699 13.0744C2.70378 13.0241 2.82899 12.9988 2.95524 13H5.95524C6.50762 13 7 13.458 7 14.009V17.009ZM5.95524 11H2.95524C1.2981 11 0 12.352 0 14.009V17.009C0 18.666 1.2981 20 2.95524 20H5.95524C7.61238 20 9 18.666 9 17.009V14.009C9 12.352 7.61238 11 5.95524 11ZM18 6.009C18 6.56 17.5067 7 16.9552 7H13.9552C13.83 7.0031 13.7054 6.97967 13.5889 6.93112C13.4724 6.88256 13.3664 6.80988 13.2773 6.71739C13.1881 6.62491 13.1176 6.51452 13.07 6.39282C13.0224 6.27111 12.9986 6.14058 13 6.009V3.009C12.9981 2.87645 13.0215 2.74483 13.0687 2.6219C13.116 2.49897 13.1862 2.38721 13.2752 2.29319C13.3642 2.19918 13.4702 2.1248 13.587 2.07445C13.7038 2.0241 13.829 1.99878 13.9552 2H16.9552C17.5076 2 18 2.458 18 3.009V6.009ZM16.9552 0H13.9552C12.2981 0 11 1.352 11 3.009V6.009C11 7.666 12.2981 9 13.9552 9H16.9552C18.6124 9 20 7.666 20 6.009V3.009C20 1.352 18.6124 0 16.9552 0ZM7 6.009C7 6.56 6.50667 7 5.95524 7H2.95524C2.82995 7.0031 2.70536 6.97967 2.58888 6.93112C2.47241 6.88256 2.36643 6.80988 2.27729 6.71739C2.18814 6.62491 2.11765 6.51452 2.07001 6.39282C2.02237 6.27111 1.99856 6.14058 2 6.009V3.009C1.99809 2.87645 2.02145 2.74483 2.06871 2.6219C2.11596 2.49897 2.18616 2.38721 2.27517 2.29319C2.36418 2.19918 2.4702 2.1248 2.58699 2.07445C2.70378 2.0241 2.82899 1.99878 2.95524 2H5.95524C6.50762 2 7 2.458 7 3.009V6.009ZM5.95524 0H2.95524C1.2981 0 0 1.352 0 3.009V6.009C0 7.666 1.2981 9 2.95524 9H5.95524C7.61238 9 9 7.666 9 6.009V3.009C9 1.352 7.61238 0 5.95524 0Z" fill="white"/>
</g>
<defs>
<clipPath id="clip0_2601_771">
<rect width="20" height="20" fill="white"/>
</clipPath>
</defs>
</svg>
