<svg width="20" height="20" viewBox="0 0 20 20" fill="none" xmlns="http://www.w3.org/2000/svg">
<path fill-rule="evenodd" clip-rule="evenodd" d="M9.201 1.91928C8.46775 2.00073 7.57994 2.29131 6.89303 2.67463C5.21713 3.60987 4.11697 5.19073 3.74084 7.20432C3.65803 7.6476 3.64721 8.90303 3.72248 9.33323C3.90221 10.3605 4.24752 11.2478 4.78041 12.0514C5.05049 12.4587 9.5583 17.9446 9.69822 18.0362C9.83436 18.1255 10.2014 18.1256 10.3373 18.0365C10.4769 17.9451 14.9862 12.4577 15.2556 12.0514C15.7885 11.2479 16.1338 10.3606 16.3136 9.33323C16.3896 8.89893 16.378 7.64795 16.2938 7.1951C16.0032 5.63178 15.2506 4.29955 14.1231 3.35221C12.7768 2.22116 11.0385 1.7151 9.201 1.91928ZM10.5404 5.68053C11.6715 5.92014 12.5167 6.96444 12.5167 8.12229C12.5167 9.54018 11.2957 10.6924 9.88131 10.6094C9.22865 10.5711 8.71662 10.3365 8.23385 9.85483C7.6515 9.27369 7.40252 8.41994 7.57627 7.59994C7.859 6.26534 9.20049 5.39666 10.5404 5.68053Z" fill="#FED119"/>
</svg>
