<svg width="20" height="20" viewBox="0 0 20 20" fill="none" xmlns="http://www.w3.org/2000/svg">
<g clip-path="url(#clip0_129_7315)">
<path d="M5.58402 14.4109C5.58402 14.4109 9.94658 19.105 14.5161 19.9161C18.0165 20.5374 19.5511 17.5518 19.9477 16.0676C20.0857 15.5499 19.9477 15.0149 19.5684 14.6525C19.2063 14.2901 15.9818 12.8404 15.2058 12.7886C14.6713 12.7541 14.2402 12.9785 13.8608 13.4789L13.0849 14.4626C12.7745 14.8596 12.3607 14.9631 11.9813 14.756C11.2053 14.3246 9.86037 13.4272 8.22225 11.7877C6.58413 10.1482 5.67024 8.80207 5.23915 8.02546C5.01499 7.64579 5.13569 7.2316 5.53229 6.92096L6.51516 6.14435C7.01522 5.74742 7.23938 5.33323 7.20489 4.79824C7.15316 4.00438 5.70472 0.794414 5.34262 0.431999C4.9805 0.0523257 4.44596 -0.0857369 3.92866 0.052326C2.46298 0.449257 -0.537362 1.98521 0.0833983 5.48855C0.893835 10.0446 5.58402 14.4109 5.58402 14.4109Z" fill="#00C958"/>
</g>
<defs>
<clipPath id="clip0_129_7315">
<rect width="20" height="20" fill="white"/>
</clipPath>
</defs>
</svg>
