<svg width="20" height="20" viewBox="0 0 20 20" fill="none" xmlns="http://www.w3.org/2000/svg">
<g clip-path="url(#clip0_128_3814)">
<path d="M1.2957 17.2846L4.69461 13.8957C3.59798 12.4986 3.00294 10.7734 3.00515 8.9973C3.00515 7.41556 3.47419 5.86934 4.35296 4.55417C5.23173 3.239 6.48076 2.21395 7.94209 1.60865C9.40343 1.00334 11.0114 0.844967 12.5628 1.15355C14.1141 1.46213 15.5391 2.22381 16.6576 3.34227C17.7761 4.46073 18.5377 5.88574 18.8463 7.43708C19.1549 8.98843 18.9965 10.5964 18.3912 12.0578C17.7859 13.5191 16.7609 14.7681 15.4457 15.6469C14.1305 16.5257 12.5843 16.9947 11.0026 16.9947C9.22649 16.9969 7.50125 16.4019 6.10415 15.3053L2.71524 18.7042C2.62231 18.7979 2.51175 18.8722 2.38993 18.923C2.26811 18.9737 2.13744 18.9999 2.00547 18.9999C1.8735 18.9999 1.74284 18.9737 1.62102 18.923C1.4992 18.8722 1.38864 18.7979 1.2957 18.7042C1.20201 18.6112 1.12763 18.5007 1.07688 18.3789C1.02613 18.257 1 18.1264 1 17.9944C1 17.8624 1.02613 17.7318 1.07688 17.61C1.12763 17.4881 1.20201 17.3776 1.2957 17.2846ZM17.0006 8.9973C17.0006 7.811 16.6489 6.65133 15.9898 5.66496C15.3307 4.67858 14.3939 3.90979 13.2979 3.45581C12.2019 3.00183 10.9959 2.88305 9.83241 3.11449C8.6689 3.34592 7.60015 3.91719 6.7613 4.75603C5.92246 5.59487 5.35119 6.66363 5.11976 7.82714C4.88832 8.99065 5.0071 10.1967 5.46108 11.2927C5.91506 12.3887 6.68385 13.3254 7.67023 13.9845C8.6566 14.6436 9.81627 14.9954 11.0026 14.9954C12.5934 14.9954 14.119 14.3634 15.2438 13.2386C16.3687 12.1137 17.0006 10.5881 17.0006 8.9973Z" fill="#222222"/>
</g>
<defs>
<clipPath id="clip0_128_3814">
<rect width="20" height="20" fill="white" transform="matrix(-1 0 0 1 20 0)"/>
</clipPath>
</defs>
</svg>
