<svg width="20" height="20" viewBox="0 0 20 20" fill="none" xmlns="http://www.w3.org/2000/svg">
<path fill-rule="evenodd" clip-rule="evenodd" d="M0.28085 10.0737L5.27113 11.6685L15.1363 5.31741C16.6257 4.36053 17.1533 4.43333 15.6144 5.83779L7.90371 12.9219L10.7066 15.0707L15.3067 18.596C16.0102 19.0548 16.7466 18.747 16.9719 17.9357C17.9118 13.3249 18.8296 8.714 19.7858 4.10879C20.4508 0.919201 19.5825 1.42284 16.9665 2.44685L9.7723 5.26709L0.572117 8.87627C-0.081916 9.08893 -0.169823 9.95061 0.28085 10.0737Z" fill="#2FA6D9"/>
<path opacity="0.5" fill-rule="evenodd" clip-rule="evenodd" d="M5.27051 11.6693L6.98521 17.2986C7.07316 17.6287 7.23802 17.7742 7.38094 17.7463C7.50187 17.7238 7.60078 17.5727 7.60078 17.3042C7.71067 15.8492 7.78765 14.3776 7.89753 12.9227L15.6138 5.84421C17.1471 4.43968 16.6196 4.36137 15.1357 5.32383L5.27051 11.6693Z" fill="#2FA6D9"/>
<path fill-rule="evenodd" clip-rule="evenodd" d="M7.9024 12.9224C7.79245 14.3773 7.71554 15.8489 7.60558 17.3038C7.60558 17.5724 7.50666 17.7235 7.38574 17.7459C7.88588 17.7459 8.05074 17.6787 8.3915 17.343L10.7053 15.0655L7.9024 12.9224Z" fill="#2FA6D9"/>
</svg>
